<svg style="display: none" xmlns="http://www.w3.org/2000/svg">
    <symbol id="patreon" viewBox="0 0 1080 1080" xmlns="http://www.w3.org/2000/svg">
        <path
            d="M1033 324c0-137-108-250-234-291a746 746 0 0 0-512 27C106 145 49 333 47 519c-2 154 14 558 242 561 169 2 194-216 273-321 56-75 127-96 216-118a320 320 0 0 0 255-317z" />
    </symbol>
    <symbol id="telegram" viewBox="0 0 16 16" xmlns="http://www.w3.org/2000/svg">
        <path
            d="M6.3 10.1 6 13.8c.4 0 .6-.1.8-.3l1.7-1.7 3.7 2.7c.7.4 1.2.2 1.3-.6L16 2.5c.2-1-.4-1.3-1-1.1L.6 6.8c-1 .4-1 1-.1 1.2l3.6 1.1L12.6 4c.4-.3.8-.2.5.1l-6.8 6.1Z" />
    </symbol>
    <symbol id="youtube" viewBox="0 0 20 14" xmlns="http://www.w3.org/2000/svg">
        <path
            d="M18.77 2.13A2.4 2.4 0 0 0 17.09.42C15.59 0 9.58 0 9.58 0a57.55 57.55 0 0 0-7.5.4A2.49 2.49 0 0 0 .39 2.13 26.27 26.27 0 0 0 0 6.8a26.15 26.15 0 0 0 .39 4.67 2.43 2.43 0 0 0 1.69 1.71c1.52.42 7.5.42 7.5.42a57.69 57.69 0 0 0 7.51-.4 2.4 2.4 0 0 0 1.68-1.71 25.63 25.63 0 0 0 .4-4.67 24 24 0 0 0-.4-4.69zM7.67 9.71V3.89l5 2.91z" />
    </symbol>

    <symbol id="buymeacoffee" viewBox="0 0 24 24" xmlns="http://www.w3.org/2000/svg">
        <path
            d="m20.22 6.42-.14-.67c-.11-.6-.38-1.16-1-1.38-.2-.07-.42-.1-.57-.24-.15-.14-.2-.37-.23-.57l-.19-1.14c-.06-.32-.1-.69-.25-.98-.2-.4-.6-.64-1-.8a5.72 5.72 0 0 0-.62-.19c-1-.26-2.05-.36-3.08-.41a25.83 25.83 0 0 0-3.7.06C8.53.18 7.56.28 6.7.6c-.32.12-.65.26-.89.5-.3.3-.39.77-.17 1.15.15.26.41.45.69.58.36.16.73.28 1.12.36a25 25 0 0 0 7.83.13c.36-.05.58-.5.48-.83-.13-.38-.46-.53-.84-.47-.46.07-.96.1-1.38.15-1.18.08-2.36.08-3.53 0a22.23 22.23 0 0 1-1.16-.1l-.26-.04a12.6 12.6 0 0 1-.72-.13c-.11-.03-.11-.19 0-.21l.84-.15c.13 0 .27-.03.4-.05a25.08 25.08 0 0 1 3.42-.12c.68.02 1.35.07 2.02.15l.23.03c.26.04.53.08.8.14.39.09.89.11 1.06.54.06.14.08.3.12.43l.31 1.49a.24.24 0 0 1-.2.28l-.1.02a36.7 36.7 0 0 1-4.75.3 37.06 37.06 0 0 1-4.7-.31l-.42-.06-.97-.16a1.7 1.7 0 0 0-1.12.16c-.3.16-.53.4-.68.7-.15.32-.2.66-.27 1-.07.34-.17.7-.13 1.06.09.75.61 1.36 1.37 1.5A39.69 39.69 0 0 0 16.43 9a.48.48 0 0 1 .54.53l-.07.7-1.02 9.9c-.04.42-.05.84-.13 1.24-.12.64-.55 1.03-1.18 1.18-.58.13-1.16.2-1.76.2l-1.96-.02c-.7 0-1.56-.06-2.1-.58-.47-.46-.54-1.18-.6-1.8l-.73-7-.32-3.1c-.04-.35-.29-.7-.68-.68-.34.02-.72.3-.68.68l.23 2.19.95 9.1c.14 1.35 1.17 2.08 2.44 2.28.74.12 1.5.14 2.26.16.97.01 1.94.05 2.9-.13 1.4-.25 2.46-1.2 2.6-2.65.35-3.34.7-6.67 1.03-10l.22-2.09a.48.48 0 0 1 .39-.42c.4-.08.78-.21 1.07-.52.46-.49.55-1.12.39-1.77zm-1.48.77c-.15.13-.36.2-.58.23-2.42.36-4.87.54-7.3.46a49.37 49.37 0 0 1-5.21-.5c-.17-.02-.36-.05-.47-.18-.22-.23-.12-.7-.06-1 .05-.25.15-.6.46-.64.49-.06 1.05.15 1.53.22a33.58 33.58 0 0 0 10.55-.14c.4-.07.84-.2 1.08.2.17.29.2.67.17.98a.54.54 0 0 1-.17.37zm-6.16 3.9c-.86.37-1.84.78-3.11.78a5.88 5.88 0 0 1-1.57-.21l.88 9a1.5 1.5 0 0 0 1.5 1.38s1.24.07 1.66.07c.44 0 1.78-.07 1.78-.07.78 0 1.44-.6 1.5-1.38l.94-9.95a4 4 0 0 0-1.32-.24c-.83 0-1.5.29-2.26.62z" />
    </symbol>
    <symbol id="instagram" viewBox="0 0 16 16" xmlns="http://www.w3.org/2000/svg">
        <path
            d="M11 0H5a5 5 0 0 0-5 5v6a5 5 0 0 0 5 5h6a5 5 0 0 0 5-5V5a5 5 0 0 0-5-5Zm3.5 11c0 2-1.6 3.5-3.5 3.5H5c-2 0-3.5-1.6-3.5-3.5V5c0-2 1.6-3.5 3.5-3.5h6c2 0 3.5 1.6 3.5 3.5v6Z" />
        <path
            d="M8 4a4 4 0 1 0 0 8 4 4 0 0 0 0-8Zm0 6.5a2.5 2.5 0 1 1 0-5 2.5 2.5 0 0 1 0 5Zm4.3-6.3a.5.5 0 1 0 0-1 .5.5 0 0 0 0 1Z" />
    </symbol>
    <symbol id="google" viewBox="0 0 48 48" xmlns="http://www.w3.org/2000/svg">
        <path
            d="M24 9.5c3.54 0 6.71 1.22 9.21 3.6l6.85-6.85C35.9 2.38 30.47 0 24 0 14.62 0 6.51 5.38 2.56 13.22l7.98 6.19C12.43 13.72 17.74 9.5 24 9.5z"
            fill="#EA4335" />
        <path
            d="M46.98 24.55c0-1.57-.15-3.09-.38-4.55H24v9.02h12.94c-.58 2.96-2.26 5.48-4.78 7.18l7.73 6c4.51-4.18 7.09-10.36 7.09-17.65z"
            fill="#4285F4" />
        <path
            d="M10.53 28.59c-.48-1.45-.76-2.99-.76-4.59s.27-3.14.76-4.59l-7.98-6.19C.92 16.46 0 20.12 0 24c0 3.88.92 7.54 2.56 10.78l7.97-6.19z"
            fill="#FBBC05" />
        <path
            d="M24 48c6.48 0 11.93-2.13 15.89-5.81l-7.73-6c-2.15 1.45-4.92 2.3-8.16 2.3-6.26 0-11.57-4.22-13.47-9.91l-7.98 6.19C6.51 42.62 14.62 48 24 48z"
            fill="#34A853" />
        <path d="M0 0h48v48H0z" fill="none" />
    </symbol>
</svg>