<svg xmlns="http://www.w3.org/2000/svg" viewBox="0 0 3000 1102" fill="currentColor" role="img"
    aria-labelledby="logoTitle">
    <title id="logoTitle">Mandrii logo</title>
    <path
        d="M905 586q8-44 41-75 30-29 70-36h7q23 8 42 23 12 8 26 4 22-6 19-30-1-17-14-28-20-17-46-17-42 0-74 26-77 61-107 155-16 50-5 100 5 25 24 43 35 34 85 35 22 2 43-3 48-12 78-51l18-28q5 44 39 68 9 6 20 9 25 6 48-4 22-8 38-26 13-14 23-31 3 34 13 66 2 3 5 4 14 4 27 0 20-7 16-29-10-66-8-133l135 49q5 47 40 77 15 13 33 20 34 13 69 0 34-13 55-42 36 48 96 51l24-3q30-6 58-19-4 32 0 65l5 25 10 54q11 62-10 120-16 43-58 57-17 5-34 4-49-2-74-43-9-13-10-29-6-62 27-114 20-32 43-61l2-4q-11-9-26-2-20 9-36 25-16 15-28 33-35 54-30 118 4 45 42 69 39 25 87 23 85-4 144-67 29-31 40-73 5-18 1-35-8-48-29-91-20-44-13-91l15-104v-7l-2-4q-14-3-23 12l-10 20-4 12q-7 19-17 36-3 4-8 6-21 9-44 7-16 1-31-4-24-8-40-29-16-22-23-49-13-56 7-108 12-31 38-51 36-27 77-14 14 5 25 15 13 14 8 32l-11 34q9 17 29 11 12-3 21-11 6-4 10-10 22-30 5-62-17-30-49-40t-64-1q-68 18-106 78-52 81-48 177 1 13 6 26 3 5 2 11-16 18-39 26-8 3-16 3-24 1-44-9-33-17-43-54-12-45-3-92 8-48 19-95 7-29 6-57 0-3-2-5-24-18-51-7-5 1-7 6-8 25-9 51l-2 42-2 43q-60-18-113-52-7-4-10-11-4-8-3-18l6-53q1-10-4-17-3-5-9-6-27-5-54 5-9 3-15 9-5 4-5 11l-1 14 20 245q-19 41-62 45-12 1-24-2-19-4-32-18-32-32-24-77 5-36 20-70 2-5 0-10-11-5-20 6-19 25-27 56-3 14-9 26l-4 6q-28 27-65 37-33 10-66 3-35-8-50-41-17-39-10-81m559 32 2 32-130-49 1-36 127 53M722 137q-3 0-2-5-18-10-39-4-29 9-48 33l-12 16-12 19q-12 22-21 47l-26 74q-15 42-25 85-13 49-23 100-20 99-34 199l-4 27-2 2q-21-81-27-164l-4-65-2-25-3-34-1-17v-8l-7-95q-6-72-15-142-4-30-13-59l-7-23q-6-23-28-27-7-1-12 4-23 16-34 42-43 105-71 215-17 70-32 141l-13 59-17 64-21 86-7 27-4 17-4 19-1 4q-36-107-36-220l1-78 2-42 2-63 4-45 4-42 8-74 12-131 3-46-13-8Q93 17 59 53L32 83 0 125q-2 149 6 299 2 44 6 87l4 41 9 73 2 10 3 18 9 45q8 44 23 88l15 45q16 42 48 73 10 10 25 10 14-20 20-45l15-57 8-32 9-36 21-89 13-62 12-55 19-83q26-111 63-220l5-11q1-5 4-6l7 52 4 33 1 14 1 25 2 24 4 46 9 104 16 156q5 36 13 71 13 52 31 102 9 23 32 27 7 1 12-4 14-19 19-42 23-94 42-189l13-53q14-58 31-114l38-126 6-19q4 5 3 15l2 44q5 39 12 77l12 50 14 52q15 52 33 103l30 78 19 38 29 54q13 23 28 44 20 28 46 52l22 18q64 48 141 33 55-11 98-47l13-12 1-2q1-6-5-9l-3-1q-49 33-107 47-16 4-31 4l-19-3q-20-4-37-14-16-9-30-22-16-14-29-30-21-27-37-57-48-93-69-195-28-132-34-267-5-90 0-180v-58M31 178l-7-18 78-78 14 18-85 78m73-47 12 12-36 37 28 29-12 12-39-43 47-47M90 268l16 18-16 15-17-17 17-16m-57-27-19-22 12-10 29 34-33 31-10-12 21-21m-2 45 44-45-38-41 12-12 47 53-43 43 37 39-12 12-47-49m49 70-39 39-12-12 24-23-24-27 14-14 37 37m8 10 14 12-41 43 41 41-12 11-53-52 51-55m18 51-12 13-14-11 12-14 14 12m-71 74-13-14 31-25 14 14-32 25m20 4 21-18 14 14-21 18-14-14m2683-157q-10 0-18-4-4-3-6-8-10-22-34-22-4 0-7 2-19 15-10 40 11 35 48 41 28 6 52-10 59-38 59-108l-1-23q-1-13-11-19l-2 2q-9 13-9 29-1 19-9 36-15 36-52 44m-166 111q-9 14-9 32-3 97 16 192-10 14-23 27-34 36-83 37-30 1-54-18-39-30-37-81 7-104 22-201-13-5-26-7-15-2-31-2-20 0-22 21-12 91 0 182 2 19 8 37 9 27 25 50 21 30 53 47 43 23 86-1 53-29 86-79l4 11q14 41 47 67 17 13 39 13 35-2 63-23 42-32 68-76l5 17q5 17 14 34 14 26 41 41 5 4 12 5 50 6 87-30l19-18q18-17 18-41-14 20-35 35-16 12-35 17-17 4-35-1-20-7-29-27-18-43-15-90 6-93 26-183l-7-2q-23-6-46-8-4 0-6 2-10 10-11 24-3 50-9 98-6 55 0 109l-19 26-14 16q-13 13-30 20-17 8-35 12-14 4-27-1-7-4-12-10-22-31-26-93-4-63 4-121l11-85q-11-2-27 2-25 5-46 19l-5 5m-431-7q-20 2-35 16-44 44-55 105l-4-125q-31 2-61 7-22 4-23 25v38l3 48 5 61 7 106 9 143q4 57 5 114 1 32-3 64l-5 46 8-2q22-10 30-35 14-45 19-93 9-80 12-162v-53q0-74 15-147 8-39 32-69 21-26 55-26 15 0 27 10 48 39 57 102 5 36-8 70l-2 5q-10 23-29 40-5 4-11 6-27 10-52-5-5-3-7-8-5-14 0-29 4-10 3-20 0-8-7-11l-9-3q-12-1-22 6-4 3-6 8-14 39-2 80 2 8 13 24 10 16 36 26 26 11 40 0l-15-6q-10-4-22-17-13-13-8-23 9-1 30 3 18 3 33-7 34-23 56-58 16-27 27-57 10-27 9-56-2-33-16-63-24-52-77-72-25-10-52-6m242-202-14 21q-13 18-23 38-12 23-6 50 7 28 34 37 10 3 18-2 20-13 14-35-1-5-5-7-16-8-18-25 6-23 15-45t-5-39q-6 1-10 7Z" />
</svg>